<?xml version="1.0" encoding="UTF-8"?>
<svg xmlns="http://www.w3.org/2000/svg" width="158" height="119" id="Layer_2" data-name="Layer 2" viewBox="0 0 665.1 580.59">
  <defs>
    <style>      .cls-1 {        fill: #25215f;        stroke-width: 0px;      }    </style>
  </defs>
  <g id="Layer_1-2" data-name="Layer 1">
    <g>
      <polygon class="cls-1" points="332.43 283.74 182.73 122.23 331.95 0 482.37 122.23 331.89 221.06 400.27 112.04 265.38 112.32 332.43 283.74"></polygon>
      <path class="cls-1" d="M.81,487.1v-158.38h71.25c29.27,0,46.97,19.74,46.97,49.01s-17.7,49.01-46.97,49.01H30.76v60.36H.81ZM30.76,400.88h38.57c11.57,0,18.61-6.35,18.61-17.93v-10.44c0-11.57-7.03-17.7-18.61-17.7H30.76v46.06Z"></path>
      <polygon class="cls-1" points="142.95 487.1 142.95 328.72 247.32 328.72 247.32 355.27 172.9 355.27 172.9 393.62 238.7 393.62 238.7 420.16 172.9 420.16 172.9 460.55 247.32 460.55 247.32 487.1 142.95 487.1"></polygon>
      <path class="cls-1" d="M301.21,487.1h-29.95v-158.38h71.48c28.82,0,46.74,19.06,46.74,49.01,0,21.78-9.98,38.35-29.5,44.93l32.45,64.44h-33.35l-29.5-61.04h-28.36v61.04ZM339.79,400.88c11.57,0,18.61-6.35,18.61-17.93v-10.44c0-11.57-7.03-17.7-18.61-17.7h-38.57v46.06h38.57Z"></path>
      <polygon class="cls-1" points="413.63 487.1 413.63 328.72 443.58 328.72 443.58 460.55 505.98 460.55 505.98 487.1 413.63 487.1"></polygon>
      <path class="cls-1" d="M633.2,487.1l-12.71-40.39h-56.27l-12.48,40.39h-30.41l53.1-158.38h37.21l52.64,158.38h-31.09ZM592.81,355.95h-1.14l-20.19,65.12h41.75l-20.42-65.12Z"></path>
      <path class="cls-1" d="M0,580.04v-48.39h20.39c5.16,0,9.71,1.01,13.65,3.04,3.94,2.03,7,4.86,9.19,8.5,2.19,3.64,3.28,7.86,3.28,12.65s-1.1,9.01-3.28,12.65c-2.19,3.64-5.25,6.47-9.19,8.5-3.94,2.03-8.49,3.04-13.65,3.04H0ZM6.91,574.03h13.06c4.01,0,7.48-.76,10.4-2.28,2.93-1.52,5.2-3.65,6.81-6.39,1.61-2.74,2.42-5.91,2.42-9.5s-.81-6.82-2.42-9.54c-1.61-2.72-3.88-4.84-6.81-6.36-2.93-1.52-6.39-2.28-10.4-2.28H6.91v36.36Z"></path>
      <polygon class="cls-1" points="70.92 574.03 70.92 558.41 95.18 558.41 95.18 552.53 70.92 552.53 70.92 537.67 98.15 537.67 98.15 531.65 64.01 531.65 64.01 580.04 99.12 580.04 99.12 574.03 70.92 574.03"></polygon>
      <polygon class="cls-1" points="150.55 531.65 150.55 567.71 121.52 531.65 115.85 531.65 115.85 580.04 122.76 580.04 122.76 543.99 151.79 580.04 157.46 580.04 157.46 531.65 150.55 531.65"></polygon>
      <polygon class="cls-1" points="187.12 580.04 187.12 537.67 170.53 537.67 170.53 531.65 210.55 531.65 210.55 537.67 193.96 537.67 193.96 580.04 187.12 580.04"></polygon>
      <path class="cls-1" d="M258.73,580.04h7.26l-21.98-48.39h-6.84l-21.91,48.39h7.12l5.32-12.1h25.73l5.32,12.1ZM230.12,562.41l10.43-23.74,10.43,23.74h-20.87Z"></path>
      <polygon class="cls-1" points="280.09 580.04 280.09 531.65 287 531.65 287 574.03 313.2 574.03 313.2 580.04 280.09 580.04"></polygon>
      <path class="cls-1" d="M376.58,580.59c-3.69,0-7.09-.61-10.2-1.83-3.11-1.22-5.81-2.95-8.09-5.18s-4.07-4.85-5.36-7.85c-1.29-2.99-1.94-6.29-1.94-9.88s.65-6.89,1.94-9.89c1.29-2.99,3.09-5.61,5.39-7.85,2.3-2.23,5.01-3.96,8.12-5.18,3.11-1.22,6.51-1.83,10.2-1.83s7.18.63,10.33,1.9c3.16,1.27,5.84,3.15,8.05,5.63l-4.49,4.35c-1.84-1.94-3.92-3.38-6.22-4.32-2.3-.94-4.77-1.42-7.4-1.42s-5.24.46-7.57,1.38c-2.33.92-4.34,2.21-6.05,3.87-1.71,1.66-3.03,3.63-3.97,5.91-.95,2.28-1.42,4.76-1.42,7.43s.47,5.15,1.42,7.43c.94,2.28,2.27,4.25,3.97,5.91,1.7,1.66,3.72,2.95,6.05,3.87,2.33.92,4.85,1.38,7.57,1.38s5.09-.47,7.4-1.42c2.3-.94,4.38-2.41,6.22-4.39l4.49,4.35c-2.21,2.49-4.9,4.38-8.05,5.67-3.16,1.29-6.62,1.94-10.4,1.94"></path>
      <polygon class="cls-1" points="410.45 580.04 410.45 531.65 417.37 531.65 417.37 574.03 443.56 574.03 443.56 580.04 410.45 580.04"></polygon>
      <rect class="cls-1" x="458.42" y="531.65" width="6.91" height="48.39"></rect>
      <polygon class="cls-1" points="520.08 531.65 520.08 567.71 491.05 531.65 485.38 531.65 485.38 580.04 492.3 580.04 492.3 543.99 521.33 580.04 527 580.04 527 531.65 520.08 531.65"></polygon>
      <rect class="cls-1" x="547.04" y="531.65" width="6.91" height="48.39"></rect>
      <path class="cls-1" d="M597.02,580.59c-3.69,0-7.08-.61-10.2-1.83-3.11-1.22-5.81-2.95-8.09-5.18s-4.07-4.85-5.36-7.85c-1.29-2.99-1.94-6.29-1.94-9.88s.65-6.89,1.94-9.89c1.29-2.99,3.09-5.61,5.39-7.85,2.31-2.23,5.01-3.96,8.12-5.18,3.11-1.22,6.51-1.83,10.2-1.83s7.18.63,10.33,1.9c3.16,1.27,5.84,3.15,8.05,5.63l-4.49,4.35c-1.84-1.94-3.92-3.38-6.22-4.32-2.3-.94-4.77-1.42-7.4-1.42s-5.24.46-7.57,1.38c-2.33.92-4.34,2.21-6.05,3.87-1.71,1.66-3.03,3.63-3.97,5.91-.95,2.28-1.42,4.76-1.42,7.43s.47,5.15,1.42,7.43c.94,2.28,2.27,4.25,3.97,5.91,1.7,1.66,3.72,2.95,6.05,3.87,2.33.92,4.85,1.38,7.57,1.38s5.09-.47,7.4-1.42c2.3-.94,4.38-2.41,6.22-4.39l4.49,4.35c-2.21,2.49-4.9,4.38-8.05,5.67-3.16,1.29-6.62,1.94-10.4,1.94"></path>
      <path class="cls-1" d="M646.37,580.59c-3.69,0-7.21-.56-10.58-1.69-3.36-1.13-6.01-2.59-7.95-4.39l2.56-5.39c1.84,1.61,4.19,2.95,7.05,4.01,2.86,1.06,5.83,1.59,8.92,1.59,2.81,0,5.09-.32,6.84-.97,1.75-.65,3.04-1.53,3.87-2.66s1.24-2.41,1.24-3.84c0-1.66-.54-3-1.62-4.01-1.08-1.01-2.49-1.83-4.22-2.45-1.73-.62-3.63-1.16-5.7-1.62-2.07-.46-4.16-1-6.25-1.62-2.1-.62-4.01-1.42-5.74-2.39-1.73-.97-3.12-2.27-4.18-3.91-1.06-1.64-1.59-3.74-1.59-6.32s.66-4.78,1.97-6.88c1.31-2.1,3.34-3.78,6.08-5.05,2.74-1.27,6.23-1.9,10.47-1.9,2.81,0,5.6.37,8.36,1.11,2.77.74,5.16,1.8,7.19,3.18l-2.28,5.53c-2.07-1.38-4.26-2.38-6.57-3.01-2.31-.62-4.54-.93-6.7-.93-2.72,0-4.95.35-6.71,1.04-1.75.69-3.03,1.61-3.84,2.77-.81,1.15-1.21,2.44-1.21,3.87,0,1.71.54,3.07,1.62,4.08s2.49,1.82,4.22,2.42c1.73.6,3.63,1.14,5.7,1.62,2.07.49,4.16,1.03,6.26,1.62,2.1.6,4.01,1.38,5.74,2.35,1.73.97,3.12,2.26,4.18,3.87,1.06,1.61,1.59,3.69,1.59,6.22s-.67,4.71-2,6.81c-1.34,2.1-3.4,3.78-6.19,5.05-2.79,1.27-6.3,1.9-10.54,1.9"></path>
    </g>
  </g>
</svg>
